<?xml version="1.0" encoding="utf-8"?>
<!-- Generator: Adobe Illustrator 26.5.3, SVG Export Plug-In . SVG Version: 6.00 Build 0)  -->
<svg version="1.1" id="Layer_1" xmlns="http://www.w3.org/2000/svg" xmlns:xlink="http://www.w3.org/1999/xlink" x="0px" y="0px"
	 viewBox="0 0 360 360" style="enable-background:new 0 0 360 360;" xml:space="preserve">
<style type="text/css">
	.st0{fill:#FFFFFF;stroke:#000000;stroke-width:12;stroke-miterlimit:10;}
	.st1{font-family:'MyriadPro-Regular';}
	.st2{font-size:258.301px;}
</style>
<g>
	<path class="st0" d="M305.75,121.02c-20.16-54.54-72.62-93.43-134.17-93.43S57.57,66.48,37.41,121.02
		C58.13,65,111.85,27.59,171.58,27.59S285.03,65,305.75,121.02z"/>
	<path class="st0" d="M38.17,222.17c20.69,53.49,72.62,91.43,133.41,91.43s112.72-37.94,133.41-91.43
		c-21.27,54.98-74.45,91.43-133.41,91.43S59.45,277.15,38.17,222.17z"/>
</g>
<text transform="matrix(1 0 0 1 107.1838 273.8806)" class="st1 st2">J</text>
<g>
	<g>
		<path d="M200.6,110.01l12.1-21.06c1.82-3.14,3.16-5.96,4.03-8.46s1.3-4.71,1.3-6.61V73.1c0-1.46-0.28-2.54-0.85-3.24
			c-0.56-0.7-1.44-1.05-2.62-1.05c-1.35,0-2.33,0.44-2.95,1.32c-0.62,0.88-0.93,2.26-0.93,4.13v2.15h-10.41v-2.15
			c0-3.5,0.52-6.39,1.55-8.67c1.03-2.28,2.59-4,4.67-5.14c2.08-1.14,4.7-1.71,7.87-1.71c3.17,0,5.79,0.53,7.87,1.59
			c2.08,1.06,3.63,2.66,4.67,4.79c1.03,2.13,1.55,4.81,1.55,8.03v0.78c0,2.2-0.48,4.73-1.44,7.6c-0.96,2.86-2.42,6.14-4.38,9.83
			l-9.54,17.96h15.28v10.07H200.6V110.01z"/>
	</g>
</g>
<rect x="107.18" y="95.22" width="77.45" height="19.03"/>
</svg>
